<svg width="57" height="79" viewBox="0 0 57 79" fill="none" xmlns="http://www.w3.org/2000/svg">
<path d="M0.00480072 23.767C0.00480072 23.767 20.4558 32.4334 14.7977 48.9997C14.7977 48.9997 10.2955 58.6866 2.57748 60.852C2.57748 60.852 5.40651 74.3619 19.8126 78.0556C19.8126 78.0556 41.4241 82.3865 49.7853 70.2803C49.7853 70.2803 55.9609 64.675 56.604 57.0291C56.604 57.0291 56.604 54.6098 52.6143 54.9882L46.5695 54.7343C46.5695 54.7343 43.7406 52.9522 46.0569 51.0406C46.0569 51.0406 47.2126 48.7459 45.0269 48.7459C45.0269 48.7459 44.3838 46.9638 46.3133 46.9638C46.3133 46.9638 45.5395 46.3266 44.2531 44.5443C44.2531 44.5443 45.7958 44.1612 45.7958 42.2496C45.7958 42.2496 43.4795 42.1203 43.2231 39.8303L48.3685 34.0957C48.3685 34.0957 49.9112 33.4587 48.3685 30.1434C48.3685 30.1434 51.9712 21.8602 55.4434 21.477C55.4434 21.477 48.881 7.076 28.2995 7.20535C28.2995 7.20535 11.4466 5.42321 0 23.7718L0.00480072 23.767Z" fill="#F1F1F1"/>
<path d="M29.9757 62.5054C29.9757 62.5054 25.4735 60.8479 26.6292 57.4081C26.6292 57.4081 28.4282 55.4965 29.0714 52.694C29.0714 52.694 28.8151 50.7824 30.4882 51.0365C30.4882 51.0365 37.5631 52.694 37.6938 47.5966C37.6938 47.5966 35.2516 44.5402 38.2063 42.3699L35.7643 41.0956C35.7643 41.0956 37.8244 41.0956 39.1108 39.6919C39.1108 39.6919 36.1511 37.0139 38.8544 36.5061L41.4271 34.9778L37.0554 28.4767C37.0554 28.4767 35.7691 26.436 37.3117 24.5244L37.4422 22.7423L10.9417 17.5156L0.520338 22.9962L0.0078125 23.7627C0.0078125 23.7627 33.3221 41.8573 2.5805 60.8479C2.5805 60.8479 7.98205 66.3284 15.3133 60.8479C15.3133 60.8479 21.2325 68.24 29.9757 62.5054Z" fill="#C0A179"/>
<path d="M0.00390625 23.3219C0.00390625 23.3219 7.72196 22.4932 11.968 26.4456C11.968 26.4456 19.5554 20.2033 28.0473 26.0622C28.0473 26.0622 32.8058 21.9854 37.4385 22.7471C37.4385 22.7471 39.3052 17.4581 28.4341 10.7702C28.4341 10.7702 37.6948 8.47549 25.992 7.20116C25.992 7.20116 9.2066 6.24301 0.0088605 23.3219H0.00390625Z" fill="black"/>
<path d="M36.1537 63.7787C36.1537 63.7787 34.8673 80.9199 19.3007 77.9258C19.3007 77.9258 5.13162 74.7207 2.57812 60.8516C2.57812 60.8516 7.21097 66.2028 15.3111 60.8516C15.3111 60.8516 21.9991 66.9693 29.9735 62.5091C29.9735 62.5091 32.6767 64.55 36.1489 63.7835L36.1537 63.7787Z" fill="black"/>
<path d="M37.4382 22.746C37.4382 22.746 39.1114 22.1088 44.1263 25.0408C44.1263 25.0408 50.6885 19.6895 55.1907 20.8344C55.1907 20.8344 48.672 5.79631 26.0352 7.13293C26.0352 7.13293 36.8579 8.51267 28.4387 10.7643C28.4387 10.7643 38.9179 17.3037 37.443 22.7412" fill="#FF0000"/>
<path d="M28.2449 9.68688C28.2449 9.68688 27.9885 2.54867 31.0737 0C31.0737 0 26.1847 1.27434 28.2449 9.68688Z" fill="white"/>
<path d="M43.6133 59.3182C43.6133 59.3182 52.2309 64.5449 56.6074 57.0234C56.6074 57.0234 54.4215 84.3594 19.4727 77.9733C19.4727 77.9733 32.8099 81.1065 36.1516 63.7736C36.1516 63.7736 42.1965 62.7531 43.6133 59.3134V59.3182Z" fill="#FF0000"/>
</svg>
